<svg xmlns="http://www.w3.org/2000/svg" viewBox="0 0 50 50"><path stroke="#000" stroke-width="1.1" stroke-linejoin="round" d="M24.372,46.943c-0.048,0-0.097-0.007-0.143-0.021 C9.538,42.528,6.065,27.599,6.049,25.499C6.022,22.113,6.08,11.672,6.108,10.223l0,0c0.027-1.288,1.776-1.555,4.427-1.959 c1.584-0.243,3.557-0.544,5.472-1.131c5.276-1.617,8.467-5.728,8.499-5.769c0.164-0.213,0.468-0.26,0.688-0.103 c0.061,0.043,6.163,4.383,11.109,6.129c3.092,1.093,5.287,0.94,6.6,0.849c0.857-0.057,1.665-0.115,1.724,0.655 c0.156,1.989-0.004,13.935-0.184,16.657c-0.508,7.736-6.039,17.976-19.952,21.375C24.45,46.939,24.412,46.943,24.372,46.943z M24.994,2.343c-0.941,1.1-4,4.308-8.696,5.747c-1.984,0.608-3.997,0.916-5.613,1.163c-1.507,0.231-3.568,0.545-3.577,0.992l0,0 C7.08,11.688,7.022,22.109,7.049,25.491c0.016,1.999,3.331,16.164,17.336,20.435c13.291-3.304,18.576-13.061,19.06-20.437 c0.167-2.531,0.323-13.797,0.199-16.283c-0.159,0.007-0.433,0.017-0.672,0.033c-1.299,0.092-3.715,0.257-7.001-0.904 C31.554,6.775,26.43,3.339,24.994,2.343z M6.608,10.232h0.011H6.608z" /><path stroke="#000" stroke-width="1.1" stroke-linejoin="round" fill-rule="evenodd" d="M20.46,33.945 c-0.784-0.308-3.071-2.787-4.573-4.504c-1.684-1.927-3.648-4.344-3.86-5.073c-0.019-0.065-0.063-0.231-0.001-0.405 c0.356-1.092,1.772-1.911,2.616-2.677c0.28-0.227,0.595-0.095,0.665-0.063c0.664,0.289,2.301,2.148,3.344,3.309 c0.671,0.749,1.331,1.491,1.876,2.075c0.289,0.309,0.525,0.552,0.705,0.727l0.224,0.207l0.151-0.097 c0.469-0.319,1.383-0.991,2.595-1.907c1.576-1.191,3.583-2.733,5.607-4.276c2.023-1.543,4.06-3.084,5.689-4.267 c1.528-1.109,2.867-2.041,3.383-2.181c0.045-0.012,0.277-0.081,0.497,0.051c0.053,0.032,0.1,0.075,0.139,0.124 c0.813,1.057,1.504,2.204,2.059,3.417c0.065,0.145,0.059,0.313-0.02,0.453l-0.025,0.045l-0.064,0.088 c-0.453,0.504-5.2,4.133-9.943,7.645c-2.392,1.771-4.808,3.529-6.724,4.876c-1.819,1.277-3.347,2.305-3.851,2.457 c-0.045,0.013-0.121,0.032-0.2,0.032C20.633,34.007,20.526,33.972,20.46,33.945z M24.224,30.693c1.907-1.339,4.315-3.092,6.704-4.86 c4.244-3.143,8.293-6.24,9.472-7.224l0.105-0.089l-0.72-1.367l-0.868-1.271l-0.1,0.055c-0.473,0.273-1.388,0.888-2.732,1.865 c-1.619,1.175-3.649,2.711-5.671,4.252c-5.435,4.144-8.123,6.231-8.715,6.496c-0.024,0.011-0.131,0.06-0.26,0.06 c-0.155,0-0.277-0.063-0.328-0.091c-0.296-0.163-0.795-0.673-1.316-1.232c-0.553-0.593-1.224-1.345-1.891-2.088 c-1.755-1.955-2.472-2.659-2.791-2.919l-0.056-0.043l-0.427,0.353c-0.589,0.465-1.225,0.948-1.524,1.413l-0.081,0.167l0.067,0.139 c0.391,0.673,1.752,2.42,3.547,4.472c1.839,2.105,3.363,3.648,3.979,4.105l0.133,0.083l0.049-0.021 C21.234,32.729,22.402,31.973,24.224,30.693z M39.043,15.416l0.076-0.125l-0.091,0.071L39.043,15.416z" clip-rule="evenodd" /></svg>